<?xml version="1.0" standalone="no"?>
<!DOCTYPE svg PUBLIC "-//W3C//DTD SVG 1.1//EN" "http://www.w3.org/Graphics/SVG/1.1/DTD/svg11.dtd" >
<svg viewBox="0 -200 1000 1000">
  <g transform="matrix(1 0 0 -1 0 800)">
   <path fill="currentColor"
d="M766 -1q-5 -3 -7 -1t-9 2q-50 0 -61 10q-23 20 -23 49q0 33 23 51q18 14 40 14q19 0 34 -9q13 -8 25 -25q15 25 22 54l5 23v41q0 73 -53 126t-122 53h-22l-17 -3q-6 0 -24 -8.5t-57 -36.5q-36 -25 -50 -117q-7 -49 -7 -130h-21h1l-6 2l-1 67l-2 26l-4 30q-15 90 -56 123
q-24 21 -57 39q-17 7 -33 11q-10 2 -17 3t-15 1q-70 0 -122.5 -52.5t-52.5 -126.5v-40l5 -24l9 -23l15 -22l25 17q15 8 26 8q15 0 40 -14q23 -18 23 -50q0 -29 -23 -50q-4 -3 -20 -13l-20 -4q-27 0 -36 5l-22 20q-5 5 -16 22l-13 21q-14 21 -26 69l-6 40l-3 38q0 78 63 149
t154 71q58 0 109.5 -32.5t88.5 -92.5q7 16 29 46q11 13 47 42l31 13l28 9l30 5l25 3q87 0 151.5 -69t64.5 -151l-2 -38l-6 -40q-10 -44 -26 -70q-20 -31 -34 -41z" />
  </g>

</svg>
