<?xml version="1.0" standalone="no"?>
<!DOCTYPE svg PUBLIC "-//W3C//DTD SVG 1.1//EN" "http://www.w3.org/Graphics/SVG/1.1/DTD/svg11.dtd" >
<svg viewBox="0 -200 1000 1000">
  <g transform="matrix(1 0 0 -1 0 800)">
   <path fill="currentColor"
d="M766 430q-17 6 -37 6t-40 -17q-23 -20 -23 -49q0 -33 23 -51q18 -14 40 -14l18 2q10 1 15 6q8 4 26 26q15 -25 22 -54l5 -23v-41q0 -73 -53 -126t-122 -53q-32 0 -59 11l-28 14l-33 22q-37 28 -50 118q-7 49 -7 130h-21h1l-6 -2l-1 -67l-1 -22l-5 -34q-15 -90 -56 -123
q-24 -21 -57 -39q-17 -7 -33 -11q-10 -2 -17 -3t-15 -1q-64 0 -122 52q-25 26 -39 58l-9 31q-2 11 -3.5 20t-1.5 18v40l5 24l9 22l15 23l25 -17q15 -8 26 -8q15 0 40 14q23 18 23 50q0 29 -23 50q-9 8 -20 12l-10 3l-10 2q-27 0 -36 -5l-22 -20q-5 -4 -16 -22l-13 -21
q-14 -21 -26 -69l-6 -40l-3 -38q0 -79 63 -149.5t154 -70.5q58 0 110.5 32.5t87.5 92.5q2 -4 5 -11.5t6 -13.5q6 -10 17 -22l21 -20l27 -21l59 -22l30 -5t25 -3q87 0 151.5 68.5t64.5 151.5l-2 38l-6 40q-10 44 -26 70q-20 31 -34 41z" />
  </g>

</svg>
