<?xml version="1.0" standalone="no"?>
<!DOCTYPE svg PUBLIC "-//W3C//DTD SVG 1.1//EN" "http://www.w3.org/Graphics/SVG/1.1/DTD/svg11.dtd" >
<svg viewBox="0 -200 1000 1000">
  <g transform="matrix(1 0 0 -1 0 800)">
   <path fill="currentColor"
d="M469 143q0 -72 -61 -112q-55 -30 -148 -30q-94 0 -145 21.5t-75 77.5l4 9l14 14q12 -2 15 -5l8 -6q11 -29 54 -54l36 -8l24 -4q31 -4 65 -4q78 0 116 19q52 27 52 82q0 26 -42 50l-55 16l-15 7l-5 17q0 11 11 15l11 2h20l10 1l10 4q13 4 28 16q24 14 24 57q0 19 -50 49
q-56 21 -117 21h-21q-15 0 -16 -1l-28 -3l-19 -3q-10 0 -16 -3l-12 -2l-15 -6q-49 -16 -49 -59q0 -11 3 -16l11 -18l22 -22l1 -13l-3 -13l-15 -4h-9l-33 37q-9 12 -14 25t-5 24q0 59 61 88l32 12l39 11q16 2 45.5 5t40.5 3q61 0 85 -7q31 -5 65 -21q59 -25 59 -84
q0 -36 -15 -63q-7 -11 -18 -20l-28 -18q30 -9 46.5 -31t16.5 -53z" />
  </g>

</svg>
