<?xml version="1.0" standalone="no"?>
<!DOCTYPE svg PUBLIC "-//W3C//DTD SVG 1.1//EN" "http://www.w3.org/Graphics/SVG/1.1/DTD/svg11.dtd" >
<svg viewBox="-221 -269 1000 1000">
  <g transform="matrix(1 0 0 -1 0 800)">
   <path fill="currentColor"
d="M0 -160q0 -10 -10 -10t-10 10q0 11 10 11t10 -11zM-8 -122q0 -9 -9 -9q-11 0 -11 9q0 10 11 10q9 0 9 -10zM-29 -89q0 -11 -11 -11q-10 0 -10 11q0 10 10 10q11 0 11 -10zM-62 -67q0 -10 -10 -10t-10 10t10 10t10 -10zM-101 -60q0 -10 -9 -10q-10 0 -10 10t10 10
q9 0 9 -10zM-139 -67q0 -10 -10 -10t-10 10t10 10t10 -10zM-172 -89q0 -11 -9 -11q-10 0 -10 11q0 10 10 10q9 0 9 -10zM-193 -122q0 -9 -10 -9t-10 9q0 10 10 10t10 -10zM-201 -160q0 -10 -10 -10q-9 0 -10 10q1 11 10 11q10 0 10 -11zM-193 -199q0 -9 -10 -9t-10 9
q0 11 10 11t10 -11zM-172 -231q0 -10 -9 -10q-10 0 -10 10t10 10q9 0 9 -10zM-139 -253q0 -9 -10 -9t-10 9q0 11 10 11t10 -11zM-101 -260q0 -9 -9 -9q-10 0 -10 9q0 10 10 10q9 0 9 -10zM-62 -253q0 -9 -10 -9t-10 9q0 11 10 11t10 -11zM-29 -231q0 -10 -11 -10
q-10 0 -10 10t10 10q11 0 11 -10zM-8 -199q0 -9 -9 -9q-11 0 -11 9q0 11 11 11q9 0 9 -11z" />
  </g>

</svg>
