<?xml version="1.0" standalone="no"?>
<!DOCTYPE svg PUBLIC "-//W3C//DTD SVG 1.1//EN" "http://www.w3.org/Graphics/SVG/1.1/DTD/svg11.dtd" >
<svg viewBox="0 -261 1000 1000">
  <g transform="matrix(1 0 0 -1 0 800)">
   <path fill="currentColor"
d="M452 -58l-1 -19q0 -17 -5 -29q-7 -18 -37 -49l-38 -40q-29 -31 -60 -47l-15 -8l-17 -6l-17 -4l-17 -1q-16 0 -28 2t-23 6q-17 6 -36 19q-37 22 -60 56q-29 45 -45 133l-7 46l-6 41l-3 40l-2 36l1 51l1 58q0 76 12 157l10 70q3 19 5.5 32t6.5 21l20 55q12 28 32 48
q13 10 36 24q20 8 50 8q14 0 27 -5l21 -10l14 -7l6 -3q10 -6 15 -20l4 -19q0 -6 -3 -9.5t-10 -3.5l-14 2l-18 4q-9 2 -15 8q-16 14 -36 14q-22 0 -48 -20q-11 -7 -19 -31q-7 -28 -14 -40l-12 -34l-14 -83l-4 -30l-4 -47l-2 -45l-1 -35v-97q0 -81 22 -185q8 -41 26 -78
t36 -50t39 -22.5t40 -9.5q36 0 75 34l60 65q-18 17 -20 21q-9 14 -9 38q0 21 14 39q15 15 38 15q10 0 31 -20q18 -20 18 -36z" />
  </g>

</svg>
