<?xml version="1.0" standalone="no"?>
<!DOCTYPE svg PUBLIC "-//W3C//DTD SVG 1.1//EN" "http://www.w3.org/Graphics/SVG/1.1/DTD/svg11.dtd" >
<svg viewBox="0 -388 1000 1000">
  <g transform="matrix(1 0 0 -1 0 800)">
   <path fill="currentColor"
d="M476 -306q0 -40 -36 -65q-28 -17 -66 -17q-30 0 -62 32q-38 41 -38 105q0 44 70 210l58 129q29 76 29 131q0 70 -49.5 122t-123.5 52q-72 0 -124.5 -52.5t-52.5 -126.5l1 -31q0 -9 9 -31l2 -9q0 -5 -5 -12l-18 -8q-7 0 -20 19l-9 33l-3 39q0 84 63 153t157 69
q86 0 151.5 -63t65.5 -154q0 -81 -42 -172l-50 -105q-66 -156 -66 -193q0 -33 18 -65q4 -9 18 -21l9 -5l12 -3q27 0 40 13q14 9 19 33q0 20 21 20q22 0 22 -27z" />
  </g>

</svg>
