<?xml version="1.0" standalone="no"?>
<!DOCTYPE svg PUBLIC "-//W3C//DTD SVG 1.1//EN" "http://www.w3.org/Graphics/SVG/1.1/DTD/svg11.dtd" >
<svg viewBox="0 -387 1000 1000">
  <g transform="matrix(1 0 0 -1 0 800)">
   <path fill="currentColor"
d="M80 239v-16q0 -14 -3 -17q4 -16 21 -37q17 -14 39 -14q17 0 41 18.5t24 42.5q0 22 -20 43q-18 21 -42 21q-36 0 -60 -41zM40 250q10 67 72 130q30 26 67.5 41t73.5 15q41 0 82 -15l36 -18l17 -14l18 -14q64 -61 64 -155v-387q0 -83 -62.5 -151.5t-153.5 -68.5
q-81 0 -156 62q-20 21 -48 74l-4 15l-8 26l-3 20l-1 18q0 29 21 29t21 -29v-23l3 -17l2 -9l2 -7l5 -11l7 -15l9 -15l24 -26q48 -50 126 -50q71 0 122.5 50.5t51.5 127.5v391q0 66 -53 118.5t-122 52.5q-84 0 -144 -77l15 3l16 1q35 0 68.5 -34.5t33.5 -71.5q0 -38 -33 -70
t-72 -32q-40 0 -72 31l-22 35q-9 20 -9 39z" />
  </g>

</svg>
