<?xml version="1.0" standalone="no"?>
<!DOCTYPE svg PUBLIC "-//W3C//DTD SVG 1.1//EN" "http://www.w3.org/Graphics/SVG/1.1/DTD/svg11.dtd" >
<svg viewBox="0 -385 1000 1000">
  <g transform="matrix(1 0 0 -1 0 800)">
   <path fill="currentColor"
d="M316 6q7 8 7 21l-1 12q-2 5 -6 11q-11 8 -24 8h-5l-14 -8q-10 -7 -10 -23q0 -11 1 -13l8 -8q9 -10 20 -10q12 0 24 10zM347 275l11 2l11 1l20 -2l22 -3q7 0 9 5l-2 6l-3 7l-5 13q-15 29 -35 48q-55 46 -121 46q-64 0 -125 -50q-25 -25 -40 -56l-9 -33q-4 -16 -4 -35
l1 -388q0 -75 48 -127t126 -52q66 0 121.5 51t55.5 123q0 21 22 21q18 0 18 -21q0 -87 -64 -153q-21 -21 -69 -44l-39 -13l-23 -4l-22 -2q-83 0 -150 67t-67 155v387q0 75 67 149q32 32 71 49q21 8 39 12l21 3l22 2q81 0 150 -57q15 -13 41 -54l7 -21l7 -28l2 -31
q0 -12 -11 -29q-2 -4 -5 -4l-9 8l-19 12q-16 10 -35 10l-18 -1q-38 -9 -53 -29l-11 -34l-5 -24q-2 -12 -2 -32q0 -40 -6 -43l45 -18q6 -8 15 -37q0 -10 -4 -18t-12 -17q-15 -17 -39 -17q-14 0 -35 17l-4 4l-6 10l-5 20v14l2 18q1 7 12 16v27l1 30l2 31l4 34q6 27 26 53
q8 8 58 26z" />
  </g>

</svg>
