<?xml version="1.0" standalone="no"?>
<!DOCTYPE svg PUBLIC "-//W3C//DTD SVG 1.1//EN" "http://www.w3.org/Graphics/SVG/1.1/DTD/svg11.dtd" >
<svg viewBox="0 -200 1000 1000">
  <g transform="matrix(1 0 0 -1 0 800)">
   <path fill="currentColor"
d="M388 295q18 19 18 43q0 21 -19 41q-8 9 -18.5 14t-24.5 5q-13 0 -42 -18q-17 -19 -17 -42q0 -18 19 -43l30 -17l13 -1q15 0 41 18zM76 602l1 -388q0 -31 11 -65q12 -30 41 -58q49 -51 127 -51q67 0 117 42.5t50 84.5l1 12q-2 9 -10 18q-7 9 -22 18l-57 21l-23 3l-23 12
q-43 33 -43 88v11l1 14q1 9 4 16l8 14l6 6l7 7l15 11l17 11l41 10q18 0 22 -2q4 0 16 -5q18 -5 32 -21q15 -14 24 -34l8 -39l-1 -22v-6l-4 -12q-3 -9 -23 -32l-16 -13q19 -8 48 -36q17 -18 17 -53q0 -54 -64 -110q-30 -27 -68 -41l-17 -5l-26 -6l-17 -3h-20q-85 0 -153 61.5
t-68 153.5v387q0 88 63 154.5t154 66.5q79 0 148 -62.5t69 -153.5q0 -22 -18 -22q-22 0 -22 22q0 70 -53 121q-27 28 -57 40l-32 9q-16 4 -35 4q-76 0 -126 -51t-50 -127z" />
  </g>

</svg>
