<?xml version="1.0" standalone="no"?>
<!DOCTYPE svg PUBLIC "-//W3C//DTD SVG 1.1//EN" "http://www.w3.org/Graphics/SVG/1.1/DTD/svg11.dtd" >
<svg viewBox="-407 -250 1000 1000">
  <g transform="matrix(1 0 0 -1 0 800)">
   <path fill="currentColor"
d="M-383 -194q1 -7 9 -11l22 -9l8 -1l24 2l35 6q56 10 56 17q0 8 -50 21l-50 11h-4h-7h-13q-5 0 -10 -5q-11 -6 -16.5 -13.5t-3.5 -17.5zM-174 -202l-41 -13l-15 -5l-28 -9q-41 -11 -80 -11q-18 0 -30 4l-15 4q-8 3 -13 9q-11 11 -11 26q0 16 10.5 32t26.5 25l14 3l15 1h11
l8 -1l64 -14l57 -15l13 -3l10 -1l18 3q12 3 20 9q21 16 29 42l1 11q0 20 -13 40l-3 4l-6 5q-2 -6 -6.5 -9.5t-17.5 -5.5q-11 0 -19 5q-9 7 -9 22q0 30 24 30l15 -2q3 0 20 -9q9 -4 25.5 -27.5t16.5 -51.5l-2 -17q-1 -17 -16 -32t-39 -25l84 -18l75 -20l19 -6l19 -11l4 -7
q4 -10 -6 -10q-8 0 -11 2l-13 3l-28 9l-37 8l-24 5l-66 11l-29 5z" />
  </g>

</svg>
