<?xml version="1.0" standalone="no"?>
<!DOCTYPE svg PUBLIC "-//W3C//DTD SVG 1.1//EN" "http://www.w3.org/Graphics/SVG/1.1/DTD/svg11.dtd" >
<svg viewBox="0 -200 1000 1000">
  <g transform="matrix(1 0 0 -1 0 800)">
   <path fill="currentColor"
d="M461 283l21 15q12 8 35 8q24 0 51 -23q29 -29 29 -68q0 -34 -26.5 -62t-51.5 -28q-32 0 -38 6l-22 22l2 -17q8 -20 20 -31l21 -15l35 -22l37 -19l30 -8l24 -3q33 0 85.5 26.5t68.5 52.5l11 24l10 29l5 30l3 26q0 70 -55 122.5t-122 52.5q-59 0 -105 -35q-13 -10 -21 -20
l-11 -11l-12 -13l-9 -14zM413 218l-1 18q0 6 -4 23q-2 13 -13 36q-17 42 -37 62q-7 8 -21 16q-9 7 -29 12l-15 1h-6h-24l-19 -3q-6 0 -14 -2l-21 -7q-42 -10 -64 -33q-21 -17 -41 -54l-9 -33q-4 -16 -4 -35q0 -58 5 -75t30 -42l24 18q5 5 24 12q20 0 35 -12q19 -16 19 -45
v-22q0 -23 -6 -31q-9 -13 -36 -13q-15 0 -30.5 3.5t-38.5 26.5q-34 23 -53 82l-5 19l-6 33l-2 21l-1 25q0 86 67 154q31 28 83 45q28 8 52 12l25 3l25 1h15q8 0 15 -3l10 -4q8 -2 13 -6q16 -9 28 -24q17 -20 35 -53l18 -36l6 11q15 39 23 45l16 19l29 23q49 36 124 36
q69 0 120.5 -32.5t77.5 -92.5q12 -25 16 -46l3 -49l-3 -40l-9 -37q-2 -10 -14 -34l-5 -10l-5 -8l-13 -17q-19 -24 -67.5 -49t-91.5 -25h-8q-27 0 -39.5 2t-21.5 4t-21 6q-49 15 -79 45l-16 16l-12 16l-18 23l-7 38l-5 35z" />
  </g>

</svg>
