<?xml version="1.0" standalone="no"?>
<!DOCTYPE svg PUBLIC "-//W3C//DTD SVG 1.1//EN" "http://www.w3.org/Graphics/SVG/1.1/DTD/svg11.dtd" >
<svg viewBox="-106 -335 1000 1000">
  <g transform="matrix(1 0 0 -1 0 800)">
   <path fill="currentColor"
d="M321 -334l-10 -1h-7q-20 0 -50 11q-18 7 -43 27q-45 29 -45 96v539q0 36 -36 65q-16 12 -37.5 20t-40.5 8q-22 0 -42 -5l-19 -8q-10 -3 -20 -11q-13 -11 -23 -33l-6 -19l-4 -19q0 -22 -24 -22q-20 0 -20 22q0 24 14 50q9 23 32 46q22 17 51 27l29 7l32 3q63 0 111 -35
q24 -16 35.5 -40t11.5 -56l-1 -541q0 -34 36 -66q14 -11 53 -18t62 -7h20q12 0 19.5 -2t8.5 -10l-4 -2l-25 -12l-26 -7z" />
  </g>

</svg>
