<?xml version="1.0" standalone="no"?>
<!DOCTYPE svg PUBLIC "-//W3C//DTD SVG 1.1//EN" "http://www.w3.org/Graphics/SVG/1.1/DTD/svg11.dtd" >
<svg viewBox="0 -274 1000 1000">
  <g transform="matrix(1 0 0 -1 0 800)">
   <path fill="currentColor"
d="M612 45q-29 29 -49 77q-9 24 -15 47l-3 23l-1 25q0 76 -53 130t-127 54q-69 0 -121.5 -52.5t-52.5 -127.5q0 -30 10 -64q12 -30 41 -58q6 -5 43 -28q21 -7 50 -13q0 26 12 43q9 14 21.5 22.5t32.5 8.5q14 0 28 -7l23 -25l6 -16l2 -16q0 -18 -8 -33q-2 -4 -20 -22l-22 -10
l-20 -2l-16 1l-11 2l-19 1q-10 0 -18 2l-24 5l-18 8q-9 3 -36 20l-17 12l-17 16q-65 62 -65 153q0 79 63 150t153 71q70 0 141 -51q76 -63 76 -170q0 -67 53 -122q55 -52 126 -52q67 0 120.5 52t53.5 127q0 42 -6 55q-2 7 -3 10l-6 12q-5 14 -16 29q-14 25 -42 51l-18 15
l-24 19l-1 -8v-6q0 -6 -1 -8q-3 -7 -22 -21q-15 -12 -38 -12q-19 0 -27.5 4.5t-23.5 17.5q-9 11 -12.5 21t-3.5 20q0 11 5.5 24t16.5 24q4 4 32 6l32 4l15 -6q65 -25 101 -55q30 -23 45 -52q19 -39 28 -73q5 -19 7.5 -35.5t2.5 -35.5q0 -85 -62 -152t-153 -67q-14 0 -51 5
t-61 15l-20 -87q-14 -64 -28 -89q-13 -33 -64 -77q-57 -48 -97 -48q-102 0 -145 7q-63 13 -114.5 62.5t-68.5 73.5l-7 12l-10 19l-28 60q-7 16 -13 38l-4 21l-5 25q-7 50 -7 109l1 37l1 37l2 34l2 24l4 16q10 73 23 112q22 57 43 92q27 36 88 73q56 32 101 38h25l23 1l58 5
l33 1l32 5l26 4q13 2 26 6q73 15 104 41q40 25 56 81q3 21 9 37q3 11 9 13q4 0 8 -17l3 -18l1 -20v-15l-1 -9q0 -33 -29 -61.5t-89 -53.5l-45 -17l-48 -13q-51 -11 -91 -11l-36 1l-30 1q-27 0 -53 -6q-13 -2 -25 -8l-12 -5l-17 -8q-18 -9 -45 -27q-14 -8 -30 -27l-11 -15
l-12 -20l-8 -16l-17 -35q-12 -31 -21 -112t-9 -137q0 -67 7.5 -125.5t23.5 -92.5q32 -59 53 -82q23 -25 76 -56l26 -15l20 -8q19 -7 39 -7l45 2l53 1q70 0 107 57l25 48l16 36l14 37l10 36z" />
  </g>

</svg>
