<?xml version="1.0" standalone="no"?>
<!DOCTYPE svg PUBLIC "-//W3C//DTD SVG 1.1//EN" "http://www.w3.org/Graphics/SVG/1.1/DTD/svg11.dtd" >
<svg viewBox="-844 -365 1000 1000">
  <g transform="matrix(1 0 0 -1 0 800)">
   <path fill="currentColor"
d="M-187 -16q-4 2 -14.5 3.5t-18.5 1.5q-18 0 -36 -14q-20 -15 -20 -39q0 -27 20 -40q17 -12 36 -12l17 1q7 1 13 6q8 3 24 20q6 -9 10.5 -19.5t9.5 -23.5l4 -19v-32q0 -58 -48 -100.5t-109 -42.5q-29 0 -54 8l-25 12l-29 17q-33 22 -46 95q-3 18 -5 44.5t-2 59.5h-18l2 -1
l-6 -1l-2 -54v-17l-5 -28q-13 -71 -50 -98q-22 -17 -51 -31l-30 -9l-29 -3q-57 0 -109 42q-23 20 -36 46l-8 25q-4 16 -4 31v31l4 19l8 18l14 18l23 -13q6 -3 11 -4.5t11 -2.5q14 0 37 12q20 15 20 40q0 23 -20 39q-9 7 -18 11l-9 1l-10 2q-25 0 -32 -4l-20 -16
q-4 -3 -14 -17l-11 -17q-13 -17 -24 -56l-6 -31l-2 -30q0 -65 57 -121t138 -56q53 0 100 26.5t79 73.5l4 -12q2 -2 6 -7q2 -4 30 -28l28 -23l53 -18l25 -3q14 -3 25 -3q78 0 136 55t58 121l-2 31l-6 31q-9 36 -23 56q-19 26 -31 33z" />
  </g>

</svg>
