<?xml version="1.0" standalone="no"?>
<!DOCTYPE svg PUBLIC "-//W3C//DTD SVG 1.1//EN" "http://www.w3.org/Graphics/SVG/1.1/DTD/svg11.dtd" >
<svg viewBox="0 -200 1000 1000">
  <g transform="matrix(1 0 0 -1 0 800)">
   <path fill="currentColor"
d="M473 219q0 -45 -14.5 -83t-49.5 -72q-65 -64 -155 -64q-87 0 -152 64t-65 155q0 89 63.5 153t153.5 64q87 0 153 -63t66 -154zM85 261l27 19q7 5 27 12q21 0 45 -19q28 -23 28 -55q0 -22 -27 -50q-9 -7 -23 -14l-22 -6q-8 0 -9 -2h-6l-14 4l-25 14l8 -19l10 -17
q11 -19 26 -33q49 -52 124 -52q71 0 123.5 51.5t52.5 124.5q0 69 -51.5 121.5t-124.5 52.5q-72 0 -124 -52l-11 -14l-15 -23l-10 -18z" />
  </g>

</svg>
