<?xml version="1.0" standalone="no"?>
<!DOCTYPE svg PUBLIC "-//W3C//DTD SVG 1.1//EN" "http://www.w3.org/Graphics/SVG/1.1/DTD/svg11.dtd" >
<svg viewBox="0 -200 1000 1000">
  <g transform="matrix(1 0 0 -1 0 800)">
   <path fill="currentColor"
d="M692 389l6 -19q0 -6 -2 -13t-11 -17q-7 -11 -23 -21q-15 -8 -34 -8q-16 0 -32 9t-24 23l-4 11l-3 19l1 16q2 10 7 15q4 7 25 17l31 15l16 -1q83 0 150.5 -61.5t67.5 -154.5q0 -85 -62 -152t-154 -67q-75 0 -139 53q-35 28 -56 68.5t-21 88.5q0 76 -52.5 130t-126.5 54
q-70 0 -122.5 -52.5t-52.5 -126.5q0 -31 11 -65q12 -29 41 -58q6 -5 43 -28q21 -7 50 -12q0 25 12 43q8 14 21 22t32 8q15 0 29 -7l23 -24l6 -17l2 -15q0 -19 -9 -33q-7 -15 -18 -22l-10 -5l-13 -5l-8 -1l-12 -2l-16 2l-11 2h-20q-9 0 -17 3l-24 4l-19 8q-9 4 -35 20l-17 13
l-17 15q-66 62 -66 154q0 78 63 149t154 71q70 0 141 -50q76 -64 76 -170q0 -68 53 -123q55 -51 125 -51q68 0 121.5 52t53.5 126t-54 122q-13 15 -35 28q-19 13 -41 20z" />
  </g>

</svg>
