<?xml version="1.0" standalone="no"?>
<!DOCTYPE svg PUBLIC "-//W3C//DTD SVG 1.1//EN" "http://www.w3.org/Graphics/SVG/1.1/DTD/svg11.dtd" >
<svg viewBox="0 -200 1000 1000">
  <g transform="matrix(1 0 0 -1 0 800)">
   <path fill="currentColor"
d="M476 212q0 -42 -15 -77.5t-51 -73.5q-60 -66 -153 -66q-25 0 -45.5 3.5t-37.5 12.5l-19 8l-18 9l-19 14l-15 12l-15 14l-13 17q-10 12 -24 39l-14 44l-6 47q0 36 3 53l1 22q0 6 3 14l4 16q5 16 11 30.5t16 26.5l8 12l8 10l13 14q21 16 53 16q23 0 41 -14q23 -20 23 -51
q0 -29 -23 -51q-19 -17 -41 -17l-13 -1l-17 1l-10 4l-10 8l-9 -14l-6 -28l-3 -13v-15v-12v-11v-24l3 -16l2 -14q1 -5 6 -15l4 -10q23 25 68 50l20 8l24 8q22 5 46 5q90 0 150 -70l5 10q15 34 15 65q0 56 -27 108q-5 11 -20 30l-27 26l-9 8l-4 8l-1 13v2q4 8 16 14l20 -1
l34 -32q3 -1 14 -17l19 -25l14 -29l12 -36l6 -34zM383 104q-18 26 -55.5 45t-70.5 19q-44 0 -78 -17q-31 -14 -57 -47l10 -9l26 -21l18 -10l12 -6l37 -8q20 -4 32 -4q34 0 63 12.5t54 36.5z" />
  </g>

</svg>
