<?xml version="1.0" standalone="no"?>
<!DOCTYPE svg PUBLIC "-//W3C//DTD SVG 1.1//EN" "http://www.w3.org/Graphics/SVG/1.1/DTD/svg11.dtd" >
<svg viewBox="-427 -200 1000 1000">
  <g transform="matrix(1 0 0 -1 0 800)">
   <path fill="currentColor"
d="M-71 605q0 -74 -52 -126t-127 -52q-67 0 -122 52.5t-55 125.5q0 74 52 125.5t125 51.5q68 0 126 -52q26 -26 39 -57l10 -32q4 -16 4 -36zM-130 543l5 11l7 20l3 16l1 15q0 51 -39.5 93t-96.5 42q-52 0 -93 -40q-13 -13 -30 -43q-10 -24 -10 -52q0 -31 15 -61q15 19 54 42
q31 15 64 15l20 -1q10 0 17 -2q14 -2 31 -11q29 -14 52 -44zM-350 517q41 -47 100 -47t101 46q-35 54 -101 54q-22 0 -28 -3q-5 -1 -12.5 -4t-18.5 -8q-22 -9 -41 -38z" />
  </g>

</svg>
