<?xml version="1.0" standalone="no"?>
<!DOCTYPE svg PUBLIC "-//W3C//DTD SVG 1.1//EN" "http://www.w3.org/Graphics/SVG/1.1/DTD/svg11.dtd" >
<svg viewBox="0 -261 1000 1000">
  <g transform="matrix(1 0 0 -1 0 800)">
   <path fill="currentColor"
d="M285 600q-22 0 -50.5 -11.5t-46.5 -26.5q-16 -11 -29.5 -26t-27.5 -38l-16 -46l-13 -68l-5 -41l-3 -35l-2 -45l-1 -35v-97q0 -81 22 -185q8 -41 26 -78t36 -50t39 -22.5t40 -9.5q36 0 75 34l60 65q-18 17 -20 21q-9 14 -9 38q0 21 14 39q15 15 38 15q10 0 31 -20
q18 -20 18 -36l-1 -19q0 -17 -5 -29q-7 -18 -37 -49l-38 -40q-29 -31 -60 -47l-15 -8l-17 -6l-17 -4l-17 -1q-16 0 -28 2t-23 6q-17 6 -36 19q-37 22 -60 56q-29 45 -45 133l-7 46l-6 41l-3 40l-2 36l1 51l1 58q0 75 12.5 153t30.5 125q21 55 66 93q32 27 60.5 39.5
t52.5 12.5l49 -13l50 -9q21 -4 36 -4l11 1q34 3 53 40l21 44q10 19 28.5 101t22.5 86l6 9q3 2 11 4q10 0 10 -17v-14l-1 -9q0 -10 -3 -29.5t-5.5 -31t-6.5 -28.5q-15 -65 -23 -82q-15 -38 -25 -55q-23 -39 -56 -54l-27 -10l-39 -1q-13 0 -22.5 1t-22.5 5z" />
  </g>

</svg>
