<?xml version="1.0" standalone="no"?>
<!DOCTYPE svg PUBLIC "-//W3C//DTD SVG 1.1//EN" "http://www.w3.org/Graphics/SVG/1.1/DTD/svg11.dtd" >
<svg viewBox="-371 -200 1000 1000">
  <g transform="matrix(1 0 0 -1 0 800)">
   <path fill="currentColor"
d="M-61 736l1 -8l-3 -7h-10h-9h-8h-8h-8h-22l-26 1h-7q-56 0 -109 -39q-45 -33 -58 -90l-3 -14l-3 -16l2 -16v-9l-1 -9l1 -12q0 -5 4 -10l18 11l15 5q16 0 27 -10q16 -12 16 -35q0 -14 -14 -33q-18 -13 -29 -13q-19 0 -25 3l-14 13l-13 16l-11 21l-7 21l-6 30l1 29l3 28
q6 29 26 59l9 13l4 6l8 7l12 13l16 14q28 23 64 36l37 10q18 3 36 3q35 0 52 -4h8l10 -2q12 -2 24 -12zM-45 543q0 -7 -5 -25q-6 -11 -19 -25l-27 -17l-29 -6q-8 0 -24 6q-7 3 -27 18q-9 14 -14 27l-4 14l-2 15q0 29 24 51q9 9 27 15q17 6 27 6q12 0 25 -5.5t25 -16.5
l17 -28l4 -13zM-79 545q0 9 -9 27l-13 9l-19 8q-5 0 -24 -11q-4 -4 -9 -13l-8 -16q0 -16 10 -30q3 -5 11 -10l17 -3q6 0 16 4l15 7l8 14z" />
  </g>

</svg>
