<?xml version="1.0" standalone="no"?>
<!DOCTYPE svg PUBLIC "-//W3C//DTD SVG 1.1//EN" "http://www.w3.org/Graphics/SVG/1.1/DTD/svg11.dtd" >
<svg viewBox="0 -200 1000 1000">
  <g transform="matrix(1 0 0 -1 0 800)">
   <path fill="currentColor"
d="M544 -4h-6q-10 0 -21 4q-5 2 -19 20q-5 9 -5 21q0 9 5.5 22t19.5 23l11 5l12 2q13 0 27 -9q10 -8 15 -16l13 17l12 17q30 62 30 110q0 71 -56.5 123.5t-120.5 52.5q-55 0 -100.5 -34t-61.5 -88l-2 -6l-1 -13q-3 -3 -21 -68l-16 -73v-8l-1 -12q0 -7 -5 -16q-7 -15 -21 -30
q-27 -35 -71 -35l-13 2l-11 5l-32 27l-17 20l-17 20q-27 34 -38 68l-5 19l-5 23l-3 26l-1 23l1 24v13q0 6 3 11q3 15 17 30l19 21q11 9 27 9q18 0 28.5 -6t19.5 -27l2 -12v-7q0 -5 -1 -6q0 -6 -6 -16l-5 -10l-7 -6l-11 -7l-14 -2l-9 1l-13 1q-9 0 -9 -16t1 -19l5 -24l9 -36
l7 -20l12 -21q5 -11 31 -35l16 -19q10 -12 21 -12q20 0 40 20q12 21 12 36q5 47 11 75q10 49 24 66l1 6l1 13l4 14q32 78 81 115t124 37q67 0 119 -32.5t79 -92.5l9 -24l6 -22l4 -49l-4 -40l-8 -38q-10 -31 -34 -65t-42 -50q-22 -20 -46 -20z" />
  </g>

</svg>
