<?xml version="1.0" standalone="no"?>
<!DOCTYPE svg PUBLIC "-//W3C//DTD SVG 1.1//EN" "http://www.w3.org/Graphics/SVG/1.1/DTD/svg11.dtd" >
<svg viewBox="0 -354 1000 1000">
  <g transform="matrix(1 0 0 -1 0 800)">
   <path fill="currentColor"
d="M527.98 -353.096h-4.17969q-6.9668 0 -14.6299 3.0957q-3.4834 1.54785 -13.2363 15.4775q-3.4834 6.96484 -3.4834 16.251q0 6.96484 3.83105 17.0254q3.83203 10.0596 13.585 17.7988l7.66309 3.86914l8.36035 1.54785q9.05664 0 18.8096 -6.96484
q6.9668 -6.19141 10.4502 -12.3818l9.05664 13.1553l8.35938 13.1562q20.8994 47.9795 20.8994 85.125q0 54.9443 -39.3604 95.5723q-39.3613 40.6279 -83.9473 40.6279q-38.3164 0 -70.0137 -26.3115q-31.6982 -26.3115 -42.8447 -68.1006l-1.39355 -4.64258
l-0.696289 -10.0605q-2.08984 -2.32129 -14.6299 -52.623l-11.1465 -56.4922v-6.19043l-0.696289 -9.28613q0 -5.41699 -3.4834 -12.3818q-4.87695 -11.6084 -14.6299 -23.2158q-18.8096 -27.0859 -49.4629 -27.0859l-9.05566 1.54785l-7.66406 3.86914l-22.293 20.8945
l-11.8428 15.4775l-11.8428 15.4775q-18.8105 26.3105 -26.4736 52.6221l-3.4834 14.7041l-3.48242 17.7988l-2.08984 20.1201l-0.697266 17.7988l0.697266 18.5732v10.0596q0 4.64355 2.08984 8.5127q2.08984 11.6084 11.8428 23.2158l13.2363 16.251
q7.66309 6.96484 18.8096 6.96484q12.54 0 19.8545 -4.64258q7.31543 -4.64355 13.585 -20.8945l1.39355 -9.28613v-5.41699q0 -3.87012 -0.696289 -4.64355q0 -4.64355 -4.18066 -12.3818l-3.4834 -7.73828l-4.87598 -4.64355l-7.66309 -5.41699l-9.75391 -1.54785
l-6.26953 0.773438l-9.05664 0.774414q-6.26953 0 -6.26953 -12.3818t0.696289 -14.7031l3.4834 -18.5732l6.26953 -27.8594l4.87695 -15.4766l8.36035 -16.252q3.4834 -8.51172 21.5957 -27.085l11.1465 -14.7031q6.9668 -9.28613 14.6299 -9.28613
q13.9336 0 27.8662 15.4766q8.36035 16.251 8.36035 27.8594q3.48242 36.3721 7.66309 58.04q6.96582 37.9189 16.7197 51.0752l0.696289 4.64258l0.696289 10.0605l2.78711 10.834q22.293 60.3613 56.4287 88.9951q34.1367 28.6328 86.3857 28.6328
q46.6758 0 82.9023 -25.1514q36.2256 -25.1504 55.0352 -71.582l6.26953 -18.5732l4.18066 -17.0244l2.78613 -37.9199l-2.78613 -30.9541l-5.57324 -29.4072q-6.9668 -23.9893 -23.6865 -50.3008t-29.2598 -38.6934q-15.3262 -15.4775 -32.0459 -15.4775z" />
  </g>

</svg>
