<?xml version="1.0" standalone="no"?>
<!DOCTYPE svg PUBLIC "-//W3C//DTD SVG 1.1//EN" "http://www.w3.org/Graphics/SVG/1.1/DTD/svg11.dtd" >
<svg viewBox="0 -411 1000 1000">
  <g transform="matrix(1 0 0 -1 0 800)">
   <path fill="currentColor"
d="M543 270l2 -20l-1 -23l-4 -18l-3 -40l-8 -38q-3 -12 -45 -72t-55 -71l-19 -19l-22 -27q-51 -61 -59 -65q0 -7 -34 -42t-50 -44l-3 -3l-18 -23l-16 -27v-37l1 -12l3 -14q2 -16 11 -26l14 -5l13 -2l11 -3l1 9l-1 7l-4 11q0 10 5 14q9 14 22 14l7 1l12 -1q7 0 13 -3l6 -3
l10 -7l8 -14l4 -19l2 -14l-4 -14q-1 -4 -3 -6l-5 -8l-8 -7l-12 -9h-11l-14 -1h-7h-6l-6 1l-17 3l-21 6q-11 3 -19 9l-7 10l-7 15l-5 12l-4 12l-8 33l-5 36l-1 42l47 62q9 13 31 32l44 35q0 4 26 35l51 59l53 59q26 28 39 49l25 57q12 33 12 56q0 73 -51.5 125.5t-109.5 52.5
q-12 0 -27 -7l-17 -17q-15 -15 -33 -47l-10 -29l-9 -26l-1 -6q-2 -8 -11 -28l-15 -32l-8 -19l-1 -9q0 -4 -3 -9l-10 -21q-7 -12 -20 -20q-15 -11 -29 -16l-14 -4l-19 -1q-12 0 -32 5l-28 13q-7 4 -18 26l-7 18l-10 26l-4 21l-1 27v13l1 12q0 20 6 36t20 35l18 13q9 6 18 7
q15 0 29 -11q17 -15 17 -41q0 -16 -16 -39q-14 -14 -29 -14l-15 5l-12 12v-12l-2 -37q0 -19 2 -26q6 -18 16 -31l8 -11l6 -5l14 -5l22 -3q17 0 26.5 3.5t13.5 12.5l8 21l9 29l11 24l10 23l9 31q14 41 30.5 70t38.5 49l29 26q11 7 40 7q61 0 108 -34q17 -10 41 -41l32 -52
l7 -10q9 -13 11 -22z" />
  </g>

</svg>
