<?xml version="1.0" standalone="no"?>
<!DOCTYPE svg PUBLIC "-//W3C//DTD SVG 1.1//EN" "http://www.w3.org/Graphics/SVG/1.1/DTD/svg11.dtd" >
<svg viewBox="-59 -299 1000 1000">
  <g transform="matrix(1 0 0 -1 0 800)">
   <path fill="currentColor"
d="M232 106v-8l-1 -12q0 -7 -5 -16q-7 -15 -21 -30zM37 101q0 -34 31 -68q9 -9 28 -19l15 -5l22 -7l7 -26q6 -21 10 -26l4 -18l1 -19q0 -22 -6 -40t-20 -43q-25 -42 -71 -72q-13 -11 -41 -15l-24 -3l-28 -2l-6 2q-9 0 -15 -11l-3 -8q0 -7 11 -16q16 -4 32 -4q28 0 71 16
l17 8l16 8q14 7 28 21l23 26l21 30l18 38l6 19l3 24v8v15l-3 16q0 6 -3 14l-6 21l-12 42l10 3l9 6q9 5 23 22l10 14l11 19l4 15l2 20q0 8 16.5 79t23.5 81q11 51 57.5 86.5t104.5 35.5q65 0 121 -51.5t56 -124.5l-1 -18q0 -15 -3 -22l-3 -17l-3 -9l-4 -12q-16 -52 -39 -63
l-9 9l-11 10l-9 4l-18 4q-18 0 -32 -11q-19 -15 -19 -41q0 -21 19 -41q17 -15 33 -15q18 0 45 17q15 12 39 43l25 40q13 25 18 41l8 38l4 40l-4 49l-5 21l-4 11l-6 14q-27 58 -80 91.5t-118 33.5q-72 0 -120.5 -35.5t-84.5 -116.5l-18 -71l-22 -94q2 -15 -13 -40l-18 -17
l-9 -4l-13 -4q-25 0 -39 15zM136 47q-25 0 -39 15l-6 8l-6 9l-6 22l10 -13q6 -8 17 -8l6 1q14 2 28 16q16 16 16 37q0 24 -21 42q-18 17 -34 17l-9 -2q-6 -1 -11 -5q-11 -6 -20 -13q-14 -13 -20 -31l-3 -20l-1 -21q0 -34 31 -68z" />
  </g>

</svg>
