<?xml version="1.0" standalone="no"?>
<!DOCTYPE svg PUBLIC "-//W3C//DTD SVG 1.1//EN" "http://www.w3.org/Graphics/SVG/1.1/DTD/svg11.dtd" >
<svg viewBox="0 -363 1000 1000">
  <g transform="matrix(1 0 0 -1 0 800)">
   <path fill="currentColor"
d="M209.262 -34.873q-7.2627 -3.86328 -15.333 -11.5898q-5.64941 -3.86426 -12.9121 -12.3633l-14.5264 -20.0908l-10.4912 -23.1807l-10.4912 -30.9082l-4.8418 -30.1357l-2.4209 -29.3633q0 -64.9072 50.8418 -117.451q50.8408 -52.5439 124.278 -52.5439
q47.6143 0 90.3848 25.5q21.79 11.5898 27.4385 18.5449q18.5615 18.5449 18.5615 51.7705l-0.806641 10.8184q0 7.72656 -2.42188 16.999q-1.61328 12.3633 -9.68359 36.3174t-8.07031 37.0898q0 36.3174 43.5781 40.1807q20.9824 -3.86328 35.5088 -13.9082
q10.4912 -7.72754 10.4912 -23.1816v-9.27246l-1.61426 -7.72754l-1.61426 -8.49902l-4.03516 -11.5908q-6.45605 -22.4082 -9.68359 -40.5674q-3.22852 -18.1582 -3.22852 -32.8398q0 -22.4082 8.07031 -36.3174q4.03516 -8.49902 28.2451 -24.7266l23.4033 -10.0449
l22.5967 -6.9541l22.5957 -3.86328l23.4033 -2.31836q70.21 0 122.262 52.9307q52.0518 52.9297 52.0518 117.064l-1.61426 29.3633l-4.8418 30.1348q-3.22852 15.4541 -8.87695 27.8174l-5.64941 13.9092q-1.61426 6.18164 -6.45605 13.1357
q-10.4912 18.5449 -27.4375 32.4541l-6.45703 4.63574l-8.06934 4.63574l-8.87695 4.63672l-12.9121 4.63672q-14.5264 0 -18.5615 -2.31836q-4.8418 -6.18164 -4.8418 -13.9092q3.22754 -6.18164 10.4912 -13.1357l17.7539 -9.27246l11.2979 -7.72754l12.1055 -14.6807
l8.87695 -13.1357l5.64844 -11.5908l4.03516 -9.27246l7.26367 -20.8633l4.03516 -17.7725v-31.6807q0 -57.1797 -42.7715 -97.7471t-98.4551 -40.5674q-26.6309 0 -49.6309 6.95508q-23 6.9541 -45.5957 27.8164q-5.64941 5.40918 -5.64941 19.3184v7.72656
l3.22852 13.1367l10.4912 46.3613q7.2627 29.3633 7.2627 44.0449q0 12.3633 -6.45605 26.2715q-5.64941 11.5908 -19.3682 20.8633q-25.0176 12.3633 -47.6133 12.3633l-9.68457 -0.772461q-5.64844 0 -10.4912 -1.5459l-15.333 -4.63574l-12.1045 -5.40918
q-12.1055 -6.18164 -20.1758 -19.3174q-5.64844 -11.5908 -5.64844 -28.5908q0 -15.4531 10.0869 -54.8613q10.0879 -39.4082 10.0879 -55.6348q0 -12.3633 -6.45605 -19.3184q-20.9824 -20.0898 -45.999 -30.1348l-25.8242 -7.72754q-12.9121 -3.09082 -28.2461 -3.09082
q-56.4902 0 -98.8574 40.5674q-42.3682 40.5674 -42.3682 98.5195v31.6807l4.03516 17.7725q1.61426 17 5.64844 20.8633l2.4209 7.72754l8.87793 13.9082l12.9121 -20.8633q8.87695 -6.9541 30.666 -6.9541q16.1396 0 32.2803 13.1357q18.5605 15.4541 18.5605 37.8633
q0 23.9531 -14.1221 37.8623q-14.123 13.9082 -35.1045 13.9082q-10.4912 0 -11.2988 -0.772461l-8.87695 -3.86328z" />
  </g>

</svg>
