<?xml version="1.0" standalone="no"?>
<!DOCTYPE svg PUBLIC "-//W3C//DTD SVG 1.1//EN" "http://www.w3.org/Graphics/SVG/1.1/DTD/svg11.dtd" >
<svg viewBox="0 -200 1000 1000">
  <g transform="matrix(1 0 0 -1 0 800)">
   <path fill="currentColor"
d="M646 572q-4 -14 -16 -19l-4 -1l-2 -1q-4 0 -9 4l-16 10l-16 7l-10 -2l-11 -4l-5 -1l-3 -2q-4 -2 -6 -5q-9 -5 -11 -17l-7 -20l1 -2l-17 -38l-31 -72l-24 -74l-28 -108q-15 -70 -33 -163l-11 -74h-2q-8 5 -12 5l-17 3l-9 -2l-4 9l-3 11q3 23 -15 48q-18 20 -57 30l-18 1
q-15 0 -21 -2q-9 -2 -21 -10l-18 -10l-8 -8l-3 -4q-5 -4 -10 -12l-6 -12l3 -6l1 -14l-3 -15l-12 -6h-11l-5 3l-6 6l-6 9l-3 15l1 9v12q2 6 7 14q4 9 13 18l9 12l15 10l18 11q29 18 69 18h10l12 -2q24 -3 42 -17q3 -2 37 -36l7 17q9 23 11 34q5 30 14 70l17 66l6 34l11 47
q6 24 20 62l24 64l26 64l7 22l11 21l5 5l9 8l20 11l22 8l23 2q9 0 16 -3l12 -7l13 -6q5 -2 9 -5q9 -7 9 -20zM389 398q0 -16 -7 -31q-3 -11 -14.5 -26t-37.5 -32q-15 -11 -46 -17l-12 -2h-9q-17 0 -35.5 4t-34.5 13l-17 10l-16 12l-12 14l-11 15l-6 14l-1 11l-2 12l3 11
q2 5 6 9l5 6l6 4h10l14 -2l1 -11l2 -6l-2 -15l-1 -7l6 -10q0 -6 7 -11l2 -2l4 -4l8 -7l10 -6l7 -5l9 -5l14 -5q7 -1 20 -1l18 1q36 9 57 32q14 21 14 44v7l2 7l5 9l10 -6l14 -4zM164 213q0 -34 -18 -69l-10 -16l-13 -15l-15 -13l-16 -11l-13 -6l-11 -1h-9l-13 2l-3 2l-8 5
l-7 6l-2 4v11l3 13l11 1l7 2l14 -2l6 -2l13 7q5 2 9 6l6 6l9 8l11 18l7 21l5 22l-2 17q-9 33 -31 57q-21 16 -42 16l-8 -1l-9 3q-3 1 -6 4l5 11l4 12l20 12l13 -2l19 -7l15 -8l11 -8q30 -26 47 -83v-12z" />
  </g>

</svg>
