<?xml version="1.0" standalone="no"?>
<!DOCTYPE svg PUBLIC "-//W3C//DTD SVG 1.1//EN" "http://www.w3.org/Graphics/SVG/1.1/DTD/svg11.dtd" >
<svg viewBox="-37 -200 1000 1000">
  <g transform="matrix(1 0 0 -1 0 800)">
   <path fill="currentColor"
d="M266 683v9l1 9q0 32 -24 67q-17 19 -37 29.5t-51 17.5l-27 2q-36 0 -67 -18l-24 -15l-6 -8l-6 -4l-12 -11l-9 -15l-7 -15l-5 -12l4 -10l2 -17l-1 -3l-2 -10l-8 -2l-6 1l-5 4l-7 7l-4 9l-2 9v8l1 6q0 13 1 15q0 6 7 15l13 19l16 19l19 16l23 13q39 22 87 22l29 -2
q59 -11 106 -58q3 -2 9 -13l12 -19l11 -38l-9 -15q-4 0 -12 -6zM284 477v6l1 10q0 29 -25 69q-30 32 -84 46l-30 3q-37 0 -66 -19l-13 -6l-11 -7l-6 -8l-5 -5l-13 -12l-8 -16l-7 -10l-5 -16l5 -9l-1 -16l-1 -6l-3 -7q-3 -2 -8 -2l-6 1l-2 1l-7 8l-5 9l-4 11q1 1 1 6l1 6
l2 14q1 6 3 8l5 8l11 21q3 6 7 9l10 10l20 13l21 15q38 23 84 23l18 -1l22 -3q32 -4 51 -18q23 -12 48 -41q19 -22 31 -67l-8 -14z" />
  </g>

</svg>
