<?xml version="1.0" standalone="no"?>
<!DOCTYPE svg PUBLIC "-//W3C//DTD SVG 1.1//EN" "http://www.w3.org/Graphics/SVG/1.1/DTD/svg11.dtd" >
<svg viewBox="-800 -394 1000 1000">
  <g transform="matrix(1 0 0 -1 0 800)">
   <path fill="currentColor"
d="M-450 -356q-11 0 -16 25l-7 41l1 43v12l-1 15l3 21q0 59 -42 101.5t-102 42.5q-51 0 -102 -41q-42 -45 -42 -103q0 -37 22 -84q21 -34 63 -60l42 -9q12 -3 15 -8l1 -14q-1 -6 -7 -11q-1 -2 -18 -4l-19 -2l-31 8q-49 21 -82 76q-28 53 -28 108q0 74 52.5 129.5t133.5 55.5
q21 0 49 -5q11 -2 24 -7q15 -5 25 -12q36 -24 67 -74q17 39 67 72l47 20l34 6h16q73 0 130 -52t57 -133q0 -76 -54 -132l-34 -35q-26 -26 -46 -26l-38 -2l-25 7q-7 3 -15 20q0 11 6 20l15 2l50 -7q14 4 33 24l25 27q41 42 41 102q0 57 -42 102q-45 42 -103 42q-21 0 -50 -9
q-15 -5 -25 -12l-26 -20q-41 -45 -41 -103v-30l1 -22l-1 -18l-3 -23l-1 -10v-9v-11l-1 -19q-3 -15 -18 -15z" />
  </g>

</svg>
