<?xml version="1.0" standalone="no"?>
<!DOCTYPE svg PUBLIC "-//W3C//DTD SVG 1.1//EN" "http://www.w3.org/Graphics/SVG/1.1/DTD/svg11.dtd" >
<svg viewBox="0 -200 1000 1000">
  <g transform="matrix(1 0 0 -1 0 800)">
   <path fill="currentColor"
d="M179 409q0 -29 19 -51q9 -9 21 -15l28 -5q9 0 23 3.5t26 13.5q20 16 26 52l-2 5l3 7q3 8 11 11h16q24 -12 45.5 -34t39.5 -52q34 -60 34 -133q0 -90 -60 -152q-27 -25 -68 -43q-22 -9 -41 -13q-10 -2 -20.5 -3t-22.5 -1q-100 0 -161 56.5t-61 158.5q0 60 27 121
q16 29 35 50l21 19l27 24l13 3l6 -2l11 -5zM348 385q-7 -35 -37 -59l-31 -18q-14 -6 -30 -6q-26 0 -59 19q-22 16 -37 59q-21 -18 -57 -74l-15 -46l-3 -46q0 -77 48 -127q48 -46 130 -46q65 0 118 47q23 21 38 55.5t15 67.5q0 57 -21 102q-13 34 -59 72z" />
  </g>

</svg>
