<?xml version="1.0" standalone="no"?>
<!DOCTYPE svg PUBLIC "-//W3C//DTD SVG 1.1//EN" "http://www.w3.org/Graphics/SVG/1.1/DTD/svg11.dtd" >
<svg viewBox="-815 -400 1000 1000">
  <g transform="matrix(1 0 0 -1 0 800)">
   <path fill="currentColor"
d="M-484 -222l-1 29l-2 17q0 6 -3 12q-1 7 -9 22.5t-33 38.5q-43 35 -97 35q-59 0 -101 -42q-22 -23 -32.5 -47t-10.5 -55q0 -56 42 -100.5t102 -44.5q29 0 53.5 9.5t48.5 29.5q43 38 43 96zM-463 -124q21 44 66.5 71t97.5 27q79 0 133 -53.5t54 -132.5q0 -78 -55 -133
t-132 -55h-11l-11 2l-11 3q-6 0 -11.5 2t-12.5 20q0 4 7 18l11 3h9l30 -5q19 0 30.5 2t23.5 8q20 9 48 33q42 42 42 102q0 58 -42 100q-16 16 -47 33q-26 11 -55 11q-54 0 -95 -36t-48 -89l1 -19q0 -78 -55 -133t-133 -55q-74 0 -130 55t-56 133q0 77 54.5 131.5t131.5 54.5
q52 0 97 -27q44 -24 69 -71z" />
  </g>

</svg>
