<?xml version="1.0" standalone="no"?>
<!DOCTYPE svg PUBLIC "-//W3C//DTD SVG 1.1//EN" "http://www.w3.org/Graphics/SVG/1.1/DTD/svg11.dtd" >
<svg viewBox="0 -200 1000 1000">
  <g transform="matrix(1 0 0 -1 0 800)">
   <path fill="currentColor"
d="M822 219q0 74 -54 122q-50 53 -123 53q-70 0 -123 -52.5t-53 -126.5q0 -73 53 -123q50 -51 125 -51q68 0 121.5 52t53.5 126zM450 310q7 16 29 46q11 13 47 42q61 37 119 37q83 0 150.5 -61.5t67.5 -154.5q0 -85 -62 -152t-154 -67q-28 0 -61 7t-57 25q-40 24 -79 92
q-25 -52 -82 -90q-55 -34 -112 -34q-85 0 -153 61.5t-68 153.5q0 78 63 149t154 71q58 0 109.5 -32.5t88.5 -92.5zM85 266l21 17q13 9 29 9q18 0 42.5 -22t24.5 -54q0 -29 -22 -52.5t-43 -23.5q-28 0 -33 5l-18 19l11 -26q19 -34 32 -46q49 -51 127 -51q70 0 121.5 51.5
t51.5 126.5q0 70 -53 122q-27 28 -57 40l-32 10q-16 3 -35 3q-70 0 -123 -53q-26 -26 -44 -75z" />
  </g>

</svg>
