<?xml version="1.0" standalone="no"?>
<!DOCTYPE svg PUBLIC "-//W3C//DTD SVG 1.1//EN" "http://www.w3.org/Graphics/SVG/1.1/DTD/svg11.dtd" >
<svg viewBox="0 -200 1000 1000">
  <g transform="matrix(1 0 0 -1 0 800)">
   <path fill="currentColor"
d="M614 5l-16 6l-12 20q-5 8 -5 21q0 6 5.5 17t18.5 26q6 3 14 5l12 2q13 0 21 -7q9 -5 17 -16l2 -9l1 -16v-10l-1 -6q18 0 37 7t60 47q54 53 54 127t-54 122q-50 53 -123 53q-70 0 -123 -52.5t-53 -126.5q0 -99 -72 -162l-27 -18l-40 -21l-16 -6l-24 -5l-21 -3h-13
q-85 0 -153 61.5t-68 153.5q0 78 63 149t154 71q58 0 109.5 -32.5t88.5 -92.5q7 16 29 46q11 13 47 42q61 37 119 37q83 0 150.5 -61.5t67.5 -154.5q0 -85 -62 -152t-154 -67l-13 1zM429 219q0 70 -53 122q-27 28 -57 40l-32 10q-16 3 -35 3q-70 0 -123 -53q-4 -4 -32 -45
q-16 -31 -20 -51q29 36 62 36q22 0 39 -15q23 -18 23 -51q0 -29 -23 -49q-3 -4 -20 -14l-20 -4q-27 0 -36 6l-22 19l20 -40l14 -22l15 -19q49 -51 127 -51q70 0 121.5 51.5t51.5 126.5z" />
  </g>

</svg>
