<?xml version="1.0" standalone="no"?>
<!DOCTYPE svg PUBLIC "-//W3C//DTD SVG 1.1//EN" "http://www.w3.org/Graphics/SVG/1.1/DTD/svg11.dtd" >
<svg viewBox="0 -200 1000 1000">
  <g transform="matrix(1 0 0 -1 0 800)">
   <path fill="currentColor"
d="M139 407l20 6q17 0 40 -13q23 -16 23 -45q0 -22 -22 -45q-19 -15 -41 -15q-26 0 -31 4l-17 18q-25 -48 -25 -102q0 -40 12 -69t42 -55l30 -19l35 -18l42 -8q22 -4 36 -4q40 0 70 11q19 7 32 15l30 24q24 22 40 52l14 31l3 18l1 19q0 63 -30 110q-9 21 -22 31l-30 26l-9 8
l-6 13l1 6q5 7 14 10h19l36 -31l15 -17l20 -24l13 -26l15 -38l7 -33l2 -23l1 -12q0 -79 -71 -148q-31 -30 -73 -47q-20 -7 -43 -13l-23 -3l-26 -1q-50 0 -90 15q-26 7 -39 17l-17 11l-21 15l-30 29l-25 38l-16 44l-6 46q0 36 5.5 66t23.5 55l40 54z" />
  </g>

</svg>
