<?xml version="1.0" standalone="no"?>
<!DOCTYPE svg PUBLIC "-//W3C//DTD SVG 1.1//EN" "http://www.w3.org/Graphics/SVG/1.1/DTD/svg11.dtd" >
<svg viewBox="-460 -386 1000 1000">
  <g transform="matrix(1 0 0 -1 0 800)">
   <path fill="currentColor"
d="M-362 -85l-18 -18l-18 -28l-15 -33l-5 -35q0 -58 42 -102q18 -20 43.5 -31t58.5 -11q59 0 101.5 42t42.5 102q0 22 -14 65q-12 22 -44 49l-8 16q0 4 4 9q0 4 7 11l21 1l16 -12l15 -16l26 -37l16 -45l3 -41q0 -40 -12 -71t-42 -62q-14 -12 -58 -39q-18 -6 -38 -11
q-10 -1 -18.5 -2.5t-17.5 -1.5q-74 0 -132 54q-21 22 -38 59l-6 17l-5 19l-4 20l-1 18l4 42l1 9l1 4l3 5l8 20q11 33 48 63l20 8q18 0 18 -25q0 -7 -5 -12z" />
  </g>

</svg>
