<?xml version="1.0" standalone="no"?>
<!DOCTYPE svg PUBLIC "-//W3C//DTD SVG 1.1//EN" "http://www.w3.org/Graphics/SVG/1.1/DTD/svg11.dtd" >
<svg viewBox="-826 -385 1000 1000">
  <g transform="matrix(1 0 0 -1 0 800)">
   <path fill="currentColor"
d="M-118 -204q0 61 -48 101q-24 22 -50.5 33t-60.5 11q-63 0 -110.5 -44t-47.5 -104q0 -61 47 -101q45 -43 113 -43q31 0 57.5 10.5t51.5 32.5q48 43 48 104zM-452 -129q2 6 9 16t16 22q5 5 22 18l21 17q55 30 107 30q74 0 135 -50.5t61 -127.5q0 -70 -56 -125.5t-138 -55.5
q-27 0 -55.5 6t-51.5 21q-34 20 -70 75q-23 -43 -73 -72.5t-103 -29.5q-75 0 -136.5 51t-61.5 127q0 65 57 123t138 58q52 0 98 -26t81 -77zM-743 -306q25 -25 51.5 -35t63.5 -10q33 0 59.5 10.5t50.5 32.5q46 42 46 104q0 58 -47 101q-13 12 -25 19.5t-26 13.5l-29 8
q-9 1 -14.5 2t-17.5 1q-62 0 -111 -44q-15 -15 -29 -41q-17 -34 -17 -63q0 -32 10 -53t35 -46z" />
  </g>

</svg>
