<?xml version="1.0" standalone="no"?>
<!DOCTYPE svg PUBLIC "-//W3C//DTD SVG 1.1//EN" "http://www.w3.org/Graphics/SVG/1.1/DTD/svg11.dtd" >
<svg viewBox="-812 -399 1000 1000">
  <g transform="matrix(1 0 0 -1 0 800)">
   <path fill="currentColor"
d="M-221 -67l5 -16q0 -6 -2 -11q-2 -6 -9.5 -15.5t-20.5 -15.5q-9 -5 -16.5 -6.5t-14.5 -1.5q-13 0 -28 7t-22 20l-5 9l-2 17l2 13q0 8 5 13q3 5 22 14l29 12h14q74 0 135 -52t61 -130q0 -71 -55 -127.5t-139 -56.5q-67 0 -126 44q-31 24 -49.5 58.5t-18.5 74.5
q0 63 -47.5 109t-113.5 46q-63 0 -110.5 -44.5t-47.5 -107.5q0 -27 10 -54q10 -24 37 -48q9 -7 39 -24q18 -6 45 -10q0 21 10 36q7 10 19 19q12 6 29 6q14 0 26 -5l21 -21l5 -14l2 -13q0 -16 -7.5 -28t-16.5 -18l-9 -4l-12 -4l-7 -2l-11 -1l-15 1l-10 3h-17q-10 0 -16 2
l-21 4l-17 7q-6 2 -12.5 5.5l-19.5 10.5l-15 11l-16 13q-58 52 -58 128q0 66 57 126t138 60q32 0 63 -10.5t63 -32.5q69 -53 69 -143q0 -57 48 -102q24 -21 52.5 -32.5t59.5 -11.5q60 0 109 44t49 106t-49 103q-12 13 -31 23q-16 10 -37 17z" />
  </g>

</svg>
