<?xml version="1.0" standalone="no"?>
<!DOCTYPE svg PUBLIC "-//W3C//DTD SVG 1.1//EN" "http://www.w3.org/Graphics/SVG/1.1/DTD/svg11.dtd" >
<svg viewBox="0 -200 1049 1000">
  <g transform="matrix(1 0 0 -1 0 800)">
   <path fill="currentColor"
d="M908 1q-11 0 -16 3l-11 5l-9 8q-21 18 -21 44q0 28 20 45q17 13 37 13l24 -3q13 -1 20 -6l9 -4q8 -5 12 -9q16 30 26 65t10 58q0 70 -55 122.5t-122 52.5q-56 0 -102 -34t-60 -87l-19 -65l-4 -40l-8 -38q-9 -33 -37 -69q-35 -48 -92 -69q-23 0 -23 19q1 11 16 21
q48 25 78 69q30 62 30 110q0 71 -56.5 123.5t-120.5 52.5q-55 0 -100.5 -34t-61.5 -88l-2 -6l-1 -13q-3 -3 -21 -68l-16 -73v-8l-1 -12q0 -7 -5 -16q-7 -15 -21 -30q-27 -35 -71 -35q-38 3 -66 28q-31 33 -31 68q0 14 7 33.5t22 37.5l20 13q11 6 20 7q16 0 32 -11
q19 -15 19 -41q0 -16 -18 -39q-16 -14 -32 -14l-17 5l-13 12q4 -22 20 -42q14 -15 39 -15q20 0 40 20q12 21 12 36q5 47 11 75q10 49 24 66l1 6l1 13l4 14q32 78 81 115t124 37q67 0 119 -34q16 -8 46 -41q15 -18 35 -52l6 11q13 28 22 45l8 10l9 9l29 23q49 36 124 36
q69 0 120.5 -32.5t77.5 -92.5q12 -25 16 -46l3 -49l-3 -40l-9 -37l-7 -23l-4 -10l-4 -9q-7 -18 -23.5 -40.5t-39.5 -39.5q-18 -10 -51 -16z" />
  </g>

</svg>
