<?xml version="1.0" standalone="no"?>
<!DOCTYPE svg PUBLIC "-//W3C//DTD SVG 1.1//EN" "http://www.w3.org/Graphics/SVG/1.1/DTD/svg11.dtd" >
<svg viewBox="-712 -302 1000 1000">
  <g transform="matrix(1 0 0 -1 0 800)">
   <path fill="currentColor"
d="M-356 -209q-33 -19 -82.5 -36t-92.5 -17h-12q-7 0 -13 2q-7 0 -20 3q-23 5 -40 16q-35 19 -46 33q-13 15 -13 30q0 9 4 17.5t14 18.5q5 5 31.5 10.5t24.5 19.5t-19 14q-6 0 -12 -1t-17 -5l-17 -8q-23 -10 -34.5 -29.5t-11.5 -44.5q0 -29 24 -50l53 -36q11 -8 24 -12
l26 -11l21 -4q16 -3 31 -3h21q4 0 11 0.5t14 2.5q14 2 48 11q53 13 100 39q38 21 78 55q13 10 28 33q9 13 28 48q11 19 24 48l12 38l3 11l1 14q-2 15 -10 17l-3 -3l-4 -4l-10 -11l-14 -29l-10 -21l-9 -15q-27 -44 -62 -82t-69 -59z" />
  </g>

</svg>
