<?xml version="1.0" standalone="no"?>
<!DOCTYPE svg PUBLIC "-//W3C//DTD SVG 1.1//EN" "http://www.w3.org/Graphics/SVG/1.1/DTD/svg11.dtd" >
<svg viewBox="0 -265 1000 1000">
  <g transform="matrix(1 0 0 -1 0 800)">
   <path fill="currentColor"
d="M698 -45l3 -14l2 -15q0 -25 -31 -59q-14 -12 -83 -57l-38 -21l-34 -18q-24 -11 -45 -18l-48 -13l-23 -3l-26 -2h-7l-24 1q-12 0 -21 2l-18 3q-6 0 -16 3l-12 3l-12 4q-53 16 -89 52l-40 40l-17 17l-12 15l-7 10l-8 17l-26 58q-7 16 -13 38l-4 21l-5 25q-7 50 -7 109l1 37
l1 37l2 34l2 24l4 16q10 73 23 112q22 57 43 92q26 33 86.5 70.5t144.5 58.5l37 7l44 7q18 2 80 -14l80 -22q20 -4 31 -4q18 0 35 16q11 9 13 26l6 32l18 54l36 109q8 27 19 39q9 12 17 13l4 -4l5 -7l1 -12v-7l-1 -8l-2 -7l-3 -9l-29 -102l-10 -56q-12 -59 -26.5 -82.5
t-42.5 -36.5q-23 -10 -52 -10h-13l-9 2l-192 42q-15 0 -16 -1q-66 -14 -125 -46q-46 -24 -84 -59q-13 -15 -48 -83q-7 -20 -21 -106l-7 -73l-3 -71q0 -67 7.5 -125.5t23.5 -92.5q27 -49 57 -75l78 -53q28 -17 57 -27t54 -10q32 0 70.5 12.5t86.5 38.5l51 17q28 9 46 31
q-23 0 -38 17t-15 44q0 29 26 46l21 9q11 4 22 4q14 -2 35 -14t30 -28z" />
  </g>

</svg>
