<?xml version="1.0" standalone="no"?>
<!DOCTYPE svg PUBLIC "-//W3C//DTD SVG 1.1//EN" "http://www.w3.org/Graphics/SVG/1.1/DTD/svg11.dtd" >
<svg viewBox="0 -411 1000 1000">
  <g transform="matrix(1 0 0 -1 0 800)">
   <path fill="currentColor"
d="M467 99l25 57q12 33 12 56q0 73 -51.5 125.5t-109.5 52.5q-12 0 -27 -7l-17 -17q-19 -18 -33 -44t-21 -56l-2 -6l-1 -13l-10 -70q-4 -24 -9 -43l-9 -21l-5 -15q0 -11 -7 -18l-8 -9l-13 -11l-18 -11l-16 -8l-14 -4l-14 -1q-12 0 -32 5l-28 13q-7 4 -18 26l-7 18l-10 26
l-4 19l-1 33l-2 84q0 20 6 36t20 35l18 13q9 6 18 7q15 0 29 -11q17 -15 17 -41q0 -16 -16 -39q-14 -14 -29 -14l-15 5l-12 12v-11v-32v-27v-44q0 -18 3 -24q6 -18 16 -31l8 -11l6 -5l14 -5l22 -3h8q16 0 23 3q8 1 14 17l6 23q3 18 6 21l12 76q3 25 9 34l2 6v13l4 14
q14 41 30.5 70t38.5 49l29 26q11 7 40 7q61 0 108 -34q17 -10 41 -41l32 -52l5 11q6 22 20 45l7 10l8 9l26 23q21 17 51 27l30 7l31 2q61 0 108 -32.5t70 -92.5l9 -24l5 -22l4 -49l-4 -40l-7 -37l-7 -23l-4 -12l-3 -7l-10 -21l-11 -20q-18 -25 -36 -39q-17 -10 -45 -16
l-17 4l-8 5l-8 7q-19 18 -19 44q0 28 18 45q15 13 33 13l22 -3q18 -3 37 -19q12 26 22 63t10 60q0 72 -49 123.5t-110 51.5q-49 0 -94 -36q-41 -34 -52 -85l-17 -65l-3 -40l-8 -38q-3 -12 -45 -72t-55 -71l-19 -19l-22 -27q-51 -61 -59 -65q0 -7 -34 -42t-50 -44l-3 -3
l-18 -23l-16 -27v-37l1 -12l3 -14q2 -16 11 -26l14 -5l13 -2l11 -3l1 9l-1 7l-4 11q0 10 5 14q9 14 22 14l7 1l12 -1q7 0 13 -3l6 -3l10 -7l8 -14l4 -19l2 -14l-4 -14q-1 -4 -3 -6l-5 -8l-8 -7l-12 -9h-11l-14 -1h-7h-6l-6 1l-17 3l-21 6q-11 3 -19 9l-7 10l-7 15l-5 12
l-4 12l-8 33l-5 36l-1 42l47 62q9 13 31 32l44 35q0 4 26 35l51 59l53 59q26 28 39 49z" />
  </g>

</svg>
