<?xml version="1.0" standalone="no"?>
<!DOCTYPE svg PUBLIC "-//W3C//DTD SVG 1.1//EN" "http://www.w3.org/Graphics/SVG/1.1/DTD/svg11.dtd" >
<svg viewBox="-106 -335 1000 1000">
  <g transform="matrix(1 0 0 -1 0 800)">
   <path fill="currentColor"
d="M321 -334l-10 -1h-7q-20 0 -50 11q-18 7 -43 27q-45 29 -45 96v539q0 36 -36 65q-16 12 -37.5 20t-40.5 8q-22 0 -42 -5l-19 -8q-10 -3 -20 -11q-13 -11 -23 -33l-6 -19l-4 -19q0 -22 -24 -22q-20 0 -20 22q0 24 14 50q9 23 32 46q22 17 51 27l29 7l32 3q63 0 111 -35
q24 -16 35.5 -40t11.5 -56l-1 -541q0 -34 36 -66q14 -11 53 -18t62 -7h20q12 0 19.5 -2t8.5 -10l-4 -2l-25 -12l-26 -7zM309 689v-7l-4 -6l-8 1l-8 2l-8 1l-7 2l-7 1l-20 3l-23 5l-6 1l-27 2q-33 0 -77 -20q-47 -23 -67 -70l-4 -13l-6 -13v-16l-2 -8l-2 -8l-1 -10
q-1 -4 2 -10l18 7l13 2q15 -2 24 -13q9 -10 9 -25v-9q-4 -16 -19 -28l-14 -5l-13 -1l-14 3l-8 4l-10 13l-10 16l-6 22l-3 19l-1 28l6 25l7 26q12 29 32 48q9 10 22 20l30 20l14 6l15 7l34 10l31 2q14 0 36 -4l29 -5l6 -2q4 0 12 -4q19 -5 35 -19z" />
  </g>

</svg>
