<?xml version="1.0" standalone="no"?>
<!DOCTYPE svg PUBLIC "-//W3C//DTD SVG 1.1//EN" "http://www.w3.org/Graphics/SVG/1.1/DTD/svg11.dtd" >
<svg viewBox="-11 -200 1000 1000">
  <g transform="matrix(1 0 0 -1 0 800)">
   <path fill="currentColor"
d="M38 295q12 0 23 4q13 4 18 11q12 13 12 33q0 10 -4 16q-8 16 -8 21q0 3 5 7t12 4q34 0 64.5 -24t46.5 -70h19q-24 67 -62.5 97.5t-80.5 30.5q-21 0 -36 -5l-17 -8l-12 -9q-25 -21 -25 -50v-15q0 -7 3 -15l6 -11q5 -7 15 -13l12 -3zM48 331q-2 -2 -5 -2l-10 3q-5 3 -11 12
q-2 6 5 16q7 9 11 10l11 -2q3 0 11 -10q3 -3 -0.5 -12t-11.5 -15zM34 -4l10 1l12 4q13 3 18 10q13 13 13 33q0 11 -4 17q-9 17 -9 21l2 3l4 3l12 4q33 0 63 -23.5t48 -69.5h18q-21 66 -61 97q-36 31 -81 31q-18 0 -35.5 -5.5t-29.5 -17.5q-25 -19 -25 -50v-14q0 -8 3 -13
l7 -14l14 -12l12 -3zM44 33q-2 -2 -6 -2l-9 3q-7 2 -11 12q-2 6 5 16q7 9 12 10q7 0 10.5 -2t9.5 -9q3 -4 0 -12q-3 -7 -11 -16z" />
  </g>

</svg>
