<?xml version="1.0" standalone="no"?>
<!DOCTYPE svg PUBLIC "-//W3C//DTD SVG 1.1//EN" "http://www.w3.org/Graphics/SVG/1.1/DTD/svg11.dtd" >
<svg viewBox="0 -200 1000 1000">
  <g transform="matrix(1 0 0 -1 0 800)">
   <path fill="currentColor"
d="M348 139q0 -15 -14 -15q-15 0 -15 15q0 14 15 14q14 0 14 -14zM337 193q0 -14 -14 -14q-15 0 -15 14t15 14q14 0 14 -14zM306 239q0 -14 -14 -14q-15 0 -15 14q0 15 15 15q14 0 14 -15zM259 271q0 -15 -14 -15t-14 15q0 14 14 14t14 -14zM204 281q0 -14 -13 -14
q-15 0 -15 14q0 15 15 15q13 0 13 -15zM150 271q0 -15 -14 -15q-15 0 -15 15q0 14 15 14q14 0 14 -14zM103 239q0 -14 -14 -14q-15 0 -15 14q0 15 15 15q14 0 14 -15zM72 193q0 -14 -14 -14t-14 14t14 14t14 -14zM61 139q0 -15 -14 -15t-15 15q1 14 15 14t14 -14zM72 83
q0 -14 -14 -14t-14 14q0 15 14 15t14 -15zM103 37q0 -15 -14 -15q-15 0 -15 15q0 14 15 14q14 0 14 -14zM150 6q0 -13 -14 -13q-15 0 -15 13q0 14 15 14q14 0 14 -14zM204 -5q0 -13 -13 -13q-15 0 -15 13q0 14 15 14q13 0 13 -14zM259 6q0 -13 -14 -13t-14 13q0 14 14 14
t14 -14zM306 37q0 -15 -14 -15q-15 0 -15 15q0 14 15 14q14 0 14 -14zM337 83q0 -14 -14 -14q-15 0 -15 14q0 15 15 15q14 0 14 -15z" />
  </g>

</svg>
