<?xml version="1.0" standalone="no"?>
<!DOCTYPE svg PUBLIC "-//W3C//DTD SVG 1.1//EN" "http://www.w3.org/Graphics/SVG/1.1/DTD/svg11.dtd" >
<svg viewBox="-851 -348 1000 1000">
  <g transform="matrix(1 0 0 -1 0 800)">
   <path fill="currentColor"
d="M-397 -134l18 8q12 6 32 6t45 -17q26 -22 26 -51q0 -26 -23.5 -47t-46.5 -21q-25 0 -34 4l-20 17l2 -13q4 -9 19 -22l19 -13q46 -38 112 -38q31 0 78 20q21 8 28 12q19 9 33 27q11 15 15.5 27t7.5 35q2 7 2.5 10t0.5 10q0 29 -12 50t-38 42q-48 39 -110 39q-52 0 -94 -26
q-7 -4 -10 -6t-9 -9l-8 -7l-10 -9l-12 -10q-2 -2 -11 -18zM-442 -185v13l-4 17q-2 10 -11 27q-16 32 -34 46q-2 3 -17 12l-27 9l-15 2q-18 0 -28 -9t-14 -23l-4 -23l-2 -18l-1 -21l-6 -26q-10 -32 -27 -67l-17 -31l-9 -14l-10 -13q-5 -6 -12 -12t-20 -12q-22 -13 -39 -13
q-10 0 -20 5l-11 6l-15 11q-29 21 -44 53q-11 22 -16 49l-4 24l-2 24v18v10l3 13q1 15 16 28l12 6l14 2h12l8 -1q17 0 28 -11q10 -9 10 -34q0 -17 -8 -25t-24 -8h-11l-9 2v-22v-7v-5l-1 -7l1 -17l3 -14q6 -23 25 -43q21 -18 35 -18q17 0 51 43q23 33 40 87l5 21l4 30l1 14
q0 10 3 16q1 6 6 19q5 17 30 33t51 16h5l13 -1q7 0 14 -2l9 -3q7 -2 11 -5q14 -6 27 -19t30 -39l16 -26l6 8q7 15 11.5 23t8.5 11l15 14l26 17q44 27 111 27q63 0 109.5 -24.5t68.5 -69.5q12 -18 15 -34q1 -8 2 -20t1 -17q0 -15 -2 -26t-3.5 -17t-5.5 -15.5t-13 -24.5l-5 -8
l-4 -6l-11 -12q-13 -13 -27 -21q-9 -6 -34 -16q-44 -19 -83 -19h-6l-38 2q-19 2 -36 8q-44 10 -71 33l-14 12l-12 12l-15 17q0 10 -1 13q0 4 -3 9l-4 18z" />
  </g>

</svg>
