<?xml version="1.0" standalone="no"?>
<!DOCTYPE svg PUBLIC "-//W3C//DTD SVG 1.1//EN" "http://www.w3.org/Graphics/SVG/1.1/DTD/svg11.dtd" >
<svg viewBox="0 -200 1000 1000">
  <g transform="matrix(1 0 0 -1 0 800)">
   <path fill="currentColor"
d="M258 316l3 -53l-1 -21v-12q0 -5 -3 -12q0 -10 -3 -15l-7 -18q-23 -48 -54 -86l-9 -8l-13 -15l-18 -16l-44 -13l-24 -4l4 2l11 7l49 22l21 -4q21 -6 34 -11.5t25 -16.5t12 -19v-12q0 -4 -4.5 -8.5t-18.5 -4.5l-5 2l-7 4l-26 18q-13 7 -52 19l-34 11l-6 6l-4 3l-2 3
q0 8 1 10l3 8l11 6h9l9 1l3 3l3 1l3 2l10 6l14 14l13 15q12 12 27 32l9 16l6 14l6 11q16 29 16 61q0 15 -7 44l-9 20l-3 6l-7 10q-5 9 -20 16.5t-31 7.5l-7 -15l-7 -12l-7 -10l-9 -9q-8 -4 -21 -4l-14 1q-4 0 -12.5 4.5t-18.5 23.5l-5 21q0 13 8 27q7 12 21 21l13 5l14 4
l12 -2l13 -2q8 0 41 -8q27 -5 35 -15l35 -32q10 -13 19 -50zM383 402h20q10 0 14 -2l9 -3q8 -1 14 -6l23 -17q10 -9 19 -19l13 -22l5 -12l6 -19l10 -33l7 -28l1 -18l1 -18v-12v-7q0 -6 -1 -7l-4 -21l-2 -13l-3 -10l-9 -23q-4 -19 -13 -35q-5 -13 -12 -22l-7 -9l-9 -9
l-15 -15q-13 -10 -40 -10q-18 0 -36 15.5t-18 41.5q0 27 20 43q15 12 34 12h14q3 0 12 -5q11 -3 21 -13l15 36l5 16l5 20l2 19l1 9l-2 27l-5 38q-3 22 -12 35l-8 16q-3 7 -16 17q-6 6 -28 17l-6 3l-9 3h-13l-9 -3l-17 -57l-5 15l-6 20v10q0 9 3 18t10 19q14 17 21 18z" />
  </g>

</svg>
