<?xml version="1.0" standalone="no"?>
<!DOCTYPE svg PUBLIC "-//W3C//DTD SVG 1.1//EN" "http://www.w3.org/Graphics/SVG/1.1/DTD/svg11.dtd" >
<svg viewBox="0 -200 1000 1000">
  <g transform="matrix(1 0 0 -1 0 800)">
   <path fill="currentColor"
d="M123 413q-9 -5 -19 -15q-7 -5 -16 -16l-18 -26l-13 -30l-13 -40l-6 -39l-3 -38q0 -84 63 -152t154 -68q59 0 112 33q27 15 34 24q23 24 23 67l-1 14q0 10 -3 22q-2 16 -12 47t-10 48q0 47 54 52q26 -5 44 -18q13 -10 13 -30v-12l-2 -10l-2 -11l-5 -15q-8 -29 -12 -52.5
t-4 -42.5q0 -29 10 -47q5 -11 35 -32l29 -13l28 -9l28 -5l29 -3q87 0 151.5 68.5t64.5 151.5l-2 38l-6 39q-4 20 -11 36l-7 18q-2 8 -8 17q-13 24 -34 42l-8 6l-10 6l-11 6l-16 6q-18 0 -23 -3q-6 -8 -6 -18q4 -8 13 -17l22 -12l14 -10l15 -19l11 -17l7 -15l5 -12l9 -27
l5 -23v-41q0 -74 -53 -126.5t-122 -52.5q-33 0 -61.5 9t-56.5 36q-7 7 -7 25v10l4 17l13 60q9 38 9 57q0 16 -8 34q-7 15 -24 27q-31 16 -59 16l-12 -1q-7 0 -13 -2l-19 -6l-15 -7q-15 -8 -25 -25q-7 -15 -7 -37q0 -20 12.5 -71t12.5 -72q0 -16 -8 -25q-26 -26 -57 -39
l-32 -10q-16 -4 -35 -4q-70 0 -122.5 52.5t-52.5 127.5v41l5 23q2 22 7 27l3 10l11 18l16 -27q11 -9 38 -9q20 0 40 17q23 20 23 49q0 31 -17.5 49t-43.5 18q-13 0 -14 -1l-11 -5z" />
  </g>

</svg>
