<?xml version="1.0" standalone="no"?>
<!DOCTYPE svg PUBLIC "-//W3C//DTD SVG 1.1//EN" "http://www.w3.org/Graphics/SVG/1.1/DTD/svg11.dtd" >
<svg viewBox="0 -200 1000 1000">
  <g transform="matrix(1 0 0 -1 0 800)">
   <path fill="currentColor"
d="M553 281l19 11q13 8 35 8q24 0 51 -23q29 -30 29 -68q0 -34 -26.5 -62t-51.5 -28q-28 0 -38 5l-22 23l2 -17q4 -12 21 -30l21 -17q51 -51 125 -51q33 0 85.5 26.5t68.5 52.5l11 24l10 29l5 30l3 26q0 70 -55 122.5t-122 52.5q-59 0 -105 -35q-13 -10 -21 -20l-9 -10
l-11 -11l-13 -14q-3 -3 -12 -24zM503 212l-1 18q0 6 -4 23q-2 13 -13 36q-17 42 -37 62q-2 3 -20 16l-29 12l-17 1q-20 0 -30.5 -10.5t-16.5 -30.5l-4 -31l-2 -24l-1 -28l-8 -35q-10 -43 -29 -89l-19 -41l-9 -19l-12 -17q-9 -17 -35 -33.5t-43 -16.5q-12 0 -23 7l-12 8
l-17 14q-32 29 -49 71q-12 30 -18 65l-4 33l-2 31v25v13l2 17q3 20 20 37l12 9l16 3l13 -1l9 -1q20 -2 31 -15t11 -45q0 -23 -8.5 -33.5t-26.5 -10.5h-13l-9 2l-1 -28v-10v-8l-1 -8l1 -22l4 -20q7 -31 28.5 -56t37.5 -25q19 0 56 58q27 44 46 116l5 28l5 40l1 18q0 13 3 22
q2 10 7 25q5 23 33 43.5t56 20.5h6h15q8 0 15 -3l10 -4q8 -2 13 -6q16 -9 28 -24q17 -20 35 -53l18 -36l6 11q15 39 23 45l16 19l29 23q49 36 124 36q69 0 120.5 -32.5t77.5 -92.5q12 -25 16 -46l3 -49l-3 -40l-9 -37q-2 -10 -14 -34l-5 -10l-5 -8l-13 -17
q-19 -24 -67.5 -49t-91.5 -25h-8q-27 0 -39.5 2t-21.5 4t-21 6q-49 15 -79 45l-16 16l-12 16l-18 23v7q0 5 -1 10q0 6 -3 12l-4 24z" />
  </g>

</svg>
