<?xml version="1.0" standalone="no"?>
<!DOCTYPE svg PUBLIC "-//W3C//DTD SVG 1.1//EN" "http://www.w3.org/Graphics/SVG/1.1/DTD/svg11.dtd" >
<svg viewBox="0 -356 1000 1015">
  <g transform="matrix(1 0 0 -1 0 800)">
   <path fill="currentColor"
d="M462 -21l-4 15q0 8 6 15l5 5l12 9l15 6l32 8q32 5 52 22q9 8 18 23l10 20q30 62 30 110q0 71 -56.5 123.5t-120.5 52.5q-55 0 -100.5 -34t-61.5 -88l-2 -6l-1 -13q-3 -3 -21 -68l-16 -73v-8l-1 -12q0 -7 -5 -16q-7 -15 -21 -30q-27 -35 -71 -35l-13 2l-11 5l-32 27
l-17 20l-17 20q-27 34 -38 68l-5 19l-5 23l-3 26l-1 23l1 24v13q0 6 3 11q3 15 17 30l19 21q11 9 27 9q18 0 28.5 -6t19.5 -27l2 -12v-7q0 -5 -1 -6q0 -6 -6 -16l-5 -10l-7 -6l-11 -7l-14 -2l-9 1l-13 1q-9 0 -9 -16t1 -19l5 -24l9 -36l7 -20l12 -21q5 -11 31 -35l16 -19
q10 -12 21 -12q20 0 40 20q12 21 12 36q5 47 11 75q10 49 24 66l1 6l1 13l4 14q32 77 81 115q9 7 49 20l55 17l32 -2l17 -1l12 -1l11 -2q-59 47 -89 98q-10 21 -16 42t-6 38q0 63 34 111q9 14 57 34q25 7 44 16l79 38l50 22l48 20l43 17q15 6 36 65l9 44l6 32q3 18 14 13
q5 -2 9 -29.5t4 -60.5q0 -25 -17 -57q-5 -10 -39 -45l-51 -21l-59 -26l-138 -57l-35 -16q-12 -6 -30 -23q-27 -34 -27 -77q0 -22 6 -42l7 -19l12 -20q7 -9 36 -36q26 -24 40 -29l3 7l-9 52l-4 46q0 63 34 111q9 13 83 41l132 43l69 21l36 12q16 7 26.5 19.5t19.5 56t9 63.5
v20l2 20q2 6 10 8l2 -4l12 -25l7 -26l7 -32l1 -9v-8q0 -20 -11 -50q-7 -18 -27 -43q-13 -18 -40 -29l-56 -16l-24 -7l-37 -13l-68 -22l-26 -9l-23 -9q-65 -23 -74 -36q-27 -34 -27 -77l2 -49v-17l6 -32q12 -73 37 -96q16 -14 27 -29q11 -13 20 -33l9 -24l6 -22l4 -49l-4 -40
l-8 -38q-9 -33 -37 -69l-13 -18l-32 -40l-5 -15q0 -17 26 -51l25 -33q16 -29 28 -42l20 -23l31 -32q12 -8 40 -19h8l18 2l10 3l9 3l20 6l4 1l1 -3l1 -6q0 -8 -27 -24t-48 -16h-13l-14 3q-4 0 -18 7q-24 9 -32 23l-13 21l-5 8l-9 10l-31 42l-27 54l-5 10l-13 8l-1 -9l-1 -12
v-8q0 -6 -1 -7l-1 -18q0 -24 7 -86t14 -73q5 -16 22 -32q10 -7 45 -18h8l16 2l19 6l22 6l4 1l1 -3v-6q0 -15 -35 -31l-19 -6l-19 -3l-26 2q-16 2 -22 7q-20 7 -30 24l-9 18l-9 21q-8 21 -21 71l-4 35l-2 35l1 22q0 12 2 18l4 26l2 20q0 15 -2.5 22t-5.5 10q-3 2 -9 2l-21 -2
l-16 -1q-7 0 -16 5z" />
  </g>

</svg>
