<?xml version="1.0" standalone="no"?>
<!DOCTYPE svg PUBLIC "-//W3C//DTD SVG 1.1//EN" "http://www.w3.org/Graphics/SVG/1.1/DTD/svg11.dtd" >
<svg viewBox="0 -489 1115 1000">
  <g transform="matrix(1 0 0 -1 0 800)">
   <path fill="currentColor"
d="M610 446q-3 -2 -17 -18l-16 -21q-6 2 -23 18q-15 16 -30 38q-20 30 -25 41q-2 4 -3.5 9.5t-3.5 13.5l-1 17v8q0 30 9 57t23.5 36t69.5 20l111 21q33 9 96 39l51 26q39 28 56 61q9 22 9 50v18q0 25 -2 40q0 14 -7 17q-9 6 -15 -12l-4 -25q-5 -28 -13 -45q-11 -25 -20 -38
q-11 -16 -29 -29q-13 -9 -58.5 -32t-81.5 -36l-89 -16q-63 -9 -97 -25q-23 -13 -36 -42q-12 -33 -12 -69l1 -23q0 -12 3 -24q2 -14 4 -19l8 -20q13 -27 41 -62l35 -38q-17 0 -44 3l-23 4l-56 -12q-41 -9 -51 -16q-48 -31 -92 -108l-4 -13l-2 -13l-2 -6q-13 -11 -29 -64
l-9 -32l-9 -40q-3 -20 -15 -36q-20 -17 -35 -17q-18 0 -51 47l-28 48l-11 56l-3 25l1 19q0 14 10 15l13 -3l10 -1l13 1l12 5l7 6l6 9q8 11 8 16q1 3 1 13v13q-7 19 -16 28q-4 2 -12 5t-16 3q-14 0 -17 -2q-3 0 -12 -5l-20 -19q-13 -12 -21 -28l-3 -11l-1 -13l-3 -24l-1 -22
v-27l3 -23l10 -30q25 -68 56 -101l18 -18q9 -7 20 -12q8 -3 19 -5.5t19 -2.5q12 0 18 3q17 5 33 22q17 17 25 34l10 32l9 35l10 32q22 61 28 68l2 13l1 6q18 50 67 82q44 26 89 26l28 -2q7 0 18.5 -6.5t21.5 -18.5q24 -29 48.5 -77.5t24.5 -77.5q0 -19 -9 -36
q-3 -8 -11 -21.5t-23 -36.5q-8 -14 -11 -16l-72 -83q-23 -27 -43 -54l-18 -27q-8 -13 -16 -28q-41 -75 -41 -133q0 -44 34 -104l14 -24l20 -31q4 -14 16 -25q11 -11 26 -18l28 -12l11 -3l12 -2l8 1q17 3 27 13q7 6 18 24q9 13 13 30l4 16l1 18v8q0 5 -1 10q0 6 -5 15
q-3 9 -10 15l-11 3q-15 0 -15 -58t-26 -58q-16 0 -38 16l-18 17l-9 13l-9 15l-20 38q-27 55 -27 81q0 30 21.5 82.5t54.5 92.5l56 65l45 54l22 34l26 48q4 9 12 42l3 22l1 14l-2 16l-7 20l-10 23q-3 9 -4.5 12t-7.5 12l-25 46q-12 24 -16 43q-2 14 15 36.5t29 22.5l17 -4
q4 0 8 -1t11 -4q40 -10 58 -24q15 -10 30 -29q9 -12 24 -39l4 -16l1 -24v-21q-1 -17 -2 -27q0 -11 -2 -27t-6 -37l-3 -28l-7 -36q0 -134 5.5 -182.5t27.5 -81.5q15 -22 45 -40q18 -10 58 -23l46 -8l63 -9q6 0 56 18l52 21q-10 13 -27 13q-7 0 -43 -12q-12 -3 -19 -4l-14 -2
l-7 1l-33 2l-15 5l-49 11q-21 4 -41 17q-25 15 -43 38q-12 16 -19 64q-2 24 -3.5 49.5t-1.5 58.5v33l1 31q0 16 1 29.5t5 34.5l10 61l3 38l-2 34q0 7 -2 17t-4 19q-6 27 -24 48q-12 12 -45 37q-24 17 -48 27t-43 10h-13l-13 -1q-9 0 -16 -4z" />
  </g>

</svg>
