<?xml version="1.0" standalone="no"?>
<!DOCTYPE svg PUBLIC "-//W3C//DTD SVG 1.1//EN" "http://www.w3.org/Graphics/SVG/1.1/DTD/svg11.dtd" >
<svg viewBox="0 -383 1000 1000">
  <g transform="matrix(1 0 0 -1 0 800)">
   <path fill="currentColor"
d="M301 4l-44 -3q-41 0 -81 14.5t-75 46.5q-7 8 -13 15l-14 18q-11 18 -21 38l-11 39l-5 43q0 88 63 154.5t153 66.5q87 0 152 -60t65 -150l2 -522v-10l2 -7l9 -19q5 -5 16 -7l25 -1q13 0 13 -21q0 -22 -13 -22l-37 3l-29 15q-28 25 -28 65v520q0 70 -53 123q-27 27 -57 39
q-14 6 -31 9.5t-36 3.5q-69 0 -121.5 -52.5t-52.5 -127.5l1 -30l3 -13l8 -18l18 10l15 7l36 5q45 0 100 -45q23 -21 33 -46q12 -22 12 -54zM103 128q6 -9 21 -24q6 -6 22 -21l20 -16q41 -26 90 -26l18 1q-3 38 -39 71q-32 33 -77 33l-28 -3z" />
  </g>

</svg>
